<!DOCTYPE svg PUBLIC "-//W3C//DTD SVG 1.1//EN" "http://www.w3.org/Graphics/SVG/1.1/DTD/svg11.dtd">
<!-- Uploaded to: SVG Repo, www.svgrepo.com, Transformed by: SVG Repo Mixer Tools -->
<svg fill="#1D4ED8" height="800px" width="800px" version="1.1" id="Layer_1" xmlns="http://www.w3.org/2000/svg" xmlns:xlink="http://www.w3.org/1999/xlink" viewBox="0 0 512 512" xml:space="preserve">
<g id="SVGRepo_bgCarrier" stroke-width="0"/>
<g id="SVGRepo_tracerCarrier" stroke-linecap="round" stroke-linejoin="round"/>
<g id="SVGRepo_iconCarrier"> <g> <g> <path d="M178.087,233.739c-9.206,0-16.696,7.49-16.696,16.696c0,9.206,7.49,16.696,16.696,16.696s16.696-7.49,16.696-16.696 C194.783,241.229,187.293,233.739,178.087,233.739z"/> </g> </g> <g> <g> <path d="M333.913,367.305c-9.206,0-16.696,7.49-16.696,16.696s7.49,16.696,16.696,16.696c9.206,0,16.696-7.49,16.696-16.696 S343.119,367.305,333.913,367.305z"/> </g> </g> <g> <g> <path d="M507.108,255.327l-50.76-50.761V94.609c0-9.217-7.479-16.696-16.696-16.696H372.87c-9.217,0-16.696,7.479-16.696,16.696 v9.783l-88.37-88.37c-6.521-6.521-17.087-6.521-23.609,0L4.891,255.326c-6.521,6.521-6.521,17.087,0,23.609s17.087,6.521,23.609,0 l27.153-27.152v232.391c0,9.217,7.479,16.696,16.696,16.696h367.304c9.217,0,16.696-7.479,16.696-16.696V251.783l27.153,27.153 c6.522,6.522,17.086,6.522,23.609,0C513.631,272.413,513.631,261.848,507.108,255.327z M128,250.435 c0-27.619,22.468-50.087,50.087-50.087c27.619,0,50.087,22.468,50.087,50.087c0,27.619-22.468,50.087-50.087,50.087 C150.468,300.522,128,278.054,128,250.435z M167.837,430.566c-7.283-5.652-8.587-16.141-2.924-23.424l155.826-200.348 c5.652-7.272,16.152-8.587,23.424-2.924c7.283,5.652,8.587,16.141,2.924,23.424L191.261,427.642 C185.62,434.906,175.124,436.239,167.837,430.566z M333.913,434.087c-27.619,0-50.087-22.468-50.087-50.087 s22.468-50.087,50.087-50.087C361.532,333.913,384,356.381,384,384S361.532,434.087,333.913,434.087z M422.957,171.174 l-33.391-33.391v-26.478h33.391V171.174z"/> </g> </g> </g>
</svg>